<?xml version="1.0" encoding="utf-8"?>
<!-- Generator: Adobe Illustrator 26.5.0, SVG Export Plug-In . SVG Version: 6.00 Build 0)  -->
<svg version="1.1" id="Capa_1" xmlns="http://www.w3.org/2000/svg" xmlns:xlink="http://www.w3.org/1999/xlink" x="0px" y="0px"
	 viewBox="0 0 512 512" style="enable-background:new 0 0 512 512;" xml:space="preserve">
<style type="text/css">
	.st0{fill:#737284;}
</style>
<g>
	<path class="st0" d="M256.5,482.7c-37,0-73.2-10.6-104.8-30.7c-32-20.3-57.1-49-72.4-82.9c-14.1-31.2-19.7-64.1-16.8-97.9
		c4-46,22.7-86.2,55.5-119.7c3.8-3.9,8.8-6.1,13.9-6.1c4.7,0,9.1,1.8,12.6,5.1c7.7,7.4,7.7,18.5,0.1,26.4
		c-20.9,21.7-34.9,46.6-41.5,74.1c-10.3,43-2.1,88.6,22.5,125.1c24.6,36.4,63.6,61.1,107,67.6c7.8,1.2,15.7,1.8,23.5,1.8l0,0
		c78.1,0,144.9-57.9,155.5-134.7c7-50.6-7.8-95.5-43.9-133.6c-5.6-5.9-7.2-12.4-4.7-19.3c2.5-7,7.7-11.2,15.1-12.3
		c0.9-0.1,1.8-0.2,2.6-0.2c4.9,0,9.4,2.1,13.4,6.1c23.4,23.9,39.8,51.9,48.7,83.2c5.1,17.9,7.6,35.7,7.2,51.5
		c0.5,44.4-14.6,88.2-42.4,123.1c-28,35.2-67.6,59.8-111.6,69.2C283.2,481.3,269.8,482.7,256.5,482.7L256.5,482.7z"/>
	<path class="st0" d="M448.2,286.1c0.4-15.9-2.2-33.5-7.1-50.9c-9-31.6-25.3-59-48.2-82.4c-3.9-4-8.7-6.2-14.3-5.4
		c-6.6,1-11.3,4.6-13.5,11c-2.4,6.7-0.5,12.3,4.3,17.3c36.1,38.1,51.7,83.1,44.5,135.3c-12,87.1-94,147.8-181.3,134.7
		c-92.5-13.9-153.1-104.1-131.2-195.2c6.9-28.9,21.4-53.7,42-75c7-7.2,6.7-17-0.1-23.6c-6.6-6.4-16.7-6.1-23.6,0.9
		c-32.4,32.9-51,72.5-54.9,118.4c-2.9,33.6,2.7,66,16.6,96.9c36.6,81.1,127.5,127,214.6,108.3C386.1,457.1,449.1,376.7,448.2,286.1z
		"/>
	<path class="st0" d="M272.7,144.3c0-7.8,0-15.6,0-23.4c0-23.9,0.1-47.7,0-71.6C272.6,36.9,262,29,250.8,32.7
		c-7.3,2.4-11.3,8.7-11.3,18c0,62.3,0,124.6,0,186.9c0,1.2,0,2.3,0.1,3.5c1.1,11.2,11.9,18.3,22.3,14.4c6.9-2.5,10.8-8.7,10.8-17.3
		C272.7,206.9,272.7,175.6,272.7,144.3z"/>
</g>
</svg>
