<?xml version="1.0" encoding="utf-8"?>
<!-- Generator: Adobe Illustrator 26.5.0, SVG Export Plug-In . SVG Version: 6.00 Build 0)  -->
<svg version="1.1" id="Capa_1" xmlns="http://www.w3.org/2000/svg" xmlns:xlink="http://www.w3.org/1999/xlink" x="0px" y="0px"
	 viewBox="0 0 637 510.2" style="enable-background:new 0 0 637 510.2;" xml:space="preserve">
<style type="text/css">
	.st0{fill:#737284;}
</style>
<g>
	<path class="st0" d="M343.7,7.1c5.9,3,8.7,7.9,9.8,14.3c0.9,5.1,2.4,10,3.7,15c1.2,4.7,10.6,8.6,14.7,6.2c5.5-3.3,11-6.7,16.6-9.9
		c6.7-3.9,12-3.3,17.5,2.1c9.6,9.3,19.2,18.7,28.6,28.2c5.1,5.1,5.7,10.9,2,17.1c-3.3,5.5-6.8,11-10.1,16.5
		c-2.5,4.1,1.2,13.1,5.8,14.3c6.3,1.5,12.5,3,18.8,4.6c7.8,2,11,6,11.1,14.1c0.1,7.7,0.1,15.5,0,23.2c-0.1,2.7,0.7,3.6,3.5,3.5
		c10.8-0.2,21.6-0.1,32.4,0c19.5,0.2,34.3,14.8,34.3,34.4c0.1,42.8,0.1,85.6,0,128.3c0,8.3-5.2,14.1-12.6,14.2
		c-7.5,0.1-12.8-5.7-12.8-14.5c0-41.5,0-83,0-124.5c0-10.2-2.4-12.7-12.4-12.7c-117.5,0-235,0-352.6,0c-9.9,0-12.4,2.5-12.4,12.3
		c0,41,0,82,0,123c0,2.6,0.2,5.2-0.6,7.7c-1.8,5.5-7.5,9.1-13.2,8.5c-6.1-0.6-10.7-5.2-11.5-11.3c-0.2-1.6-0.1-3.2-0.1-4.8
		c0-41.3,0-82.7,0-124c0-22.7,14.1-36.7,36.8-36.8c9.8,0,19.7-0.2,29.5,0.1c3.4,0.1,4-1.1,3.9-4.1c-0.2-7.6-0.1-15.2,0-22.8
		c0.1-8.4,3.2-12.4,11.3-14.5c6.1-1.5,12.2-2.9,18.3-4.3c5-1.2,8.8-10.2,6.1-14.6c-3.3-5.4-6.7-10.7-9.9-16
		c-3.9-6.6-3.3-12.1,2.1-17.5c9.5-9.5,19-18.8,28.7-28.2c5.3-5.1,10.7-5.7,17.1-2c5.3,3.1,10.5,6.3,15.8,9.4
		c5.9,3.5,14.6-0.2,16.3-6.9c1-4.2,2.3-8.4,3-12.7c1.2-6.5,3.7-11.9,9.7-15.1C310.1,7.1,326.9,7.1,343.7,7.1z M230.3,156.2
		c8.9,0,17.8-0.1,26.6,0.1c3.1,0.1,4.6-0.3,4.1-4.1c-0.8-5.5,0-10.9,1.3-16.3C269.1,107,297,87.5,326,91.6
		c30.3,4.2,52,30.7,49.9,61.2c-0.2,3.5,1,3.6,3.7,3.5c14.2-0.1,28.4,0,42.6-0.1c4.8,0,11.5,2.2,13.8-0.9c2.4-3.2,0.6-9.5,0.9-14.5
		c0.1-2.3-0.8-3.1-2.8-3.5c-5.3-1.2-10.6-2.6-16-3.8c-5.9-1.3-9.7-4.6-11.4-10.5c-1.7-5.9-4.1-11.5-7.1-16.9
		c-3-5.3-2.7-10.4,0.6-15.5c2.9-4.5,5.5-9.1,8.4-13.5c1.3-2,1.2-3.3-0.5-4.9c-4-3.7-8-7.6-11.8-11.5c-1.5-1.6-2.7-1.6-4.5-0.5
		c-4.9,3.1-10,5.9-14.9,9c-4.5,2.8-9.2,3-13.8,0.6c-6.1-3.2-12.5-5.8-19.2-7.8c-4.8-1.5-7.9-4.8-9-9.8c-1.3-5.5-2.7-10.9-4-16.4
		c-0.5-2.3-1.4-3.5-4.2-3.4c-5.3,0.3-10.7,0.2-16,0c-2.4-0.1-3.8,0.4-4.3,3.1c-1,5.2-2.5,10.3-3.7,15.5c-1.4,5.9-4.8,9.7-10.6,11.3
		c-6.1,1.7-11.9,4.1-17.4,7.1c-5,2.7-9.8,2.5-14.6-0.4c-4.8-2.9-9.8-5.7-14.5-8.7c-2-1.3-3.3-1.1-4.9,0.6c-3.8,4-7.7,7.8-11.7,11.5
		c-1.6,1.5-1.7,2.7-0.5,4.5c3,4.6,5.7,9.3,8.7,13.9c3.2,5,3.4,9.9,0.5,15c-3.2,5.6-5.6,11.6-7.5,17.8c-1.2,3.9-3.4,7-7.3,8.5
		c-2.9,1.1-5.9,1.7-8.8,2.5c-4.5,1.2-10.9,1-13,3.9c-2.3,3.2-0.5,9.3-0.9,14.1c-0.3,3.4,1.2,3.9,4.1,3.8
		C212.9,156.1,221.6,156.2,230.3,156.2z M318.4,156.2c9.3,0,18.7-0.1,28,0.1c2.9,0.1,3.9-0.8,4.1-3.7c0.9-13.2-3.7-23.8-14.9-30.9
		c-11-7-22.6-7.2-33.8-0.4c-11.5,7-16.4,17.6-15.5,31.1c0.2,3.2,1.4,4,4.4,3.9C300,156.1,309.2,156.2,318.4,156.2z"/>
	<path class="st0" d="M70.5,402.4c3.9-7,9.9-8.9,17.7-8.8c50.7,0.3,101.4,0.1,152.1,0.1c9.1,0,12.3,2.2,15.7,10.6
		c2.5,6.1,5,12.2,7.3,18.4c0.9,2.3,2.1,3,4.6,3c33.7-0.1,67.5-0.1,101.2,0c2.6,0,3.6-1,4.5-3.2c2.5-6.5,5.1-12.9,7.7-19.3
		c2.9-7.1,6.5-9.6,14-9.6c52.3,0,104.6,0,156.9,0c9.3,0,14.3,5,14.3,14.4c0,20,0.1,40,0,60.1c-0.1,20.1-14.8,35-34.8,35
		c-142.1,0.1-284.1,0-426.2,0c-16.1,0-28.3-9-33.6-24.3c-0.3-1,0-2.4-1.4-2.8C70.5,451.5,70.5,426.9,70.5,402.4z M318.2,477.8
		c70.4,0,140.8,0,211.2,0c8.7,0,11.8-3,11.8-11.5c0-14.4-0.1-28.7,0.1-43.1c0-3-0.5-4.2-3.9-4.2c-43.9,0.1-87.8,0.1-131.8,0
		c-2.5,0-3.7,0.9-4.6,3.1c-2.6,6.8-5.3,13.5-8,20.2c-2.4,5.8-6.6,8.8-13.1,8.8c-41-0.1-82-0.1-123,0c-6.4,0-10.6-2.9-13-8.9
		c-2.6-6.4-5.3-12.8-7.7-19.3c-1-2.7-2.3-4-5.5-4c-43.6,0.1-87.2,0.1-130.8,0c-3.1,0-4.1,0.8-4.1,4c0.2,14,0.1,28.1,0.1,42.1
		c0,10,2.7,12.7,12.6,12.7C178.3,477.8,248.2,477.8,318.2,477.8z"/>
	<path class="st0" d="M228.2,296.3c14,7,27.8,14,41.7,20.8c3.1,1.5,4.1,3.3,4,6.6c-0.3,6.4-0.1,12.8-0.1,19.8
		c-5.4-2.8-10.2-5.2-15.1-7.7c-19.4-10-38.8-20.1-58.4-30c-3-1.5-3.7-3.2-4.2-6.5c-1.1-8.4,2-12.6,9.7-16.3
		c21.5-10.3,42.5-21.5,63.6-32.5c3.5-1.8,4.6-1.7,4.4,2.6c-0.3,5.3-0.3,10.7,0,16c0.1,2.9-1,4.2-3.5,5.5
		c-12.7,6.2-25.3,12.7-37.9,19C231.1,294.3,229.4,294.7,228.2,296.3z"/>
	<path class="st0" d="M363.2,248.4c7.9,4,14.8,7.6,21.8,11.2c17.3,8.9,34.6,17.8,52,26.5c2.6,1.3,3.3,2.9,3.7,5.8
		c1.4,9.2-2.3,13.8-10.7,17.7c-20.7,9.7-40.8,20.6-61.1,31c-1.7,0.9-3.4,1.7-5.8,2.9c0-8,0-15.5,0-22.9c0-2.2,2-2.3,3.3-3
		c14.2-7.1,28.4-14.2,43.3-21.6c-6.9-3.5-13.3-6.7-19.8-9.9c-7.8-3.9-15.5-7.9-23.3-11.5c-2.8-1.3-3.7-2.9-3.6-5.9
		C363.3,262.3,363.2,255.9,363.2,248.4z"/>
	<path class="st0" d="M354.3,231.6c-2.4,6.2-4.5,11.9-6.7,17.5c-11.8,30.6-23.7,61.1-35.3,91.7c-1.2,3.2-2.7,4.4-6.2,4.3
		c-6.1-0.3-12.2-0.1-18.8-0.1c4.8-12.6,9.4-24.7,14.1-36.8c9.3-24.1,18.7-48.2,27.8-72.4c1.2-3.3,2.8-4.4,6.2-4.2
		C341.4,231.8,347.5,231.6,354.3,231.6z"/>
	<path class="st0" d="M116.8,375.5c-7.6-0.2-13.7-6.6-13.4-14.2c0.3-7.4,6.5-13.3,13.9-13.2c7.6,0.1,13.7,6.3,13.6,14
		C130.8,369.8,124.6,375.7,116.8,375.5z"/>
	<path class="st0" d="M506.3,361.8c0-7.7,6.2-13.8,13.8-13.7c7.6,0.1,13.6,6.3,13.5,14c-0.1,7.5-6,13.3-13.6,13.4
		C512.3,375.6,506.3,369.6,506.3,361.8z"/>
</g>
</svg>
